FFmpeg version SVN-r25716, Copyright (c) 2000-2010 the FFmpeg developers  built on Nov 10 2010 12:23:18 with gcc 4.1.2 20080704 (Red Hat 4.1.2-48)  configuration: --enable-libmp3lame --enable-shared --disable-mmx --arch=x86_64  libavutil     50.33. 0 / 50.33. 0  libavcore      0.12. 1 /  0.12. 1  libavcodec    52.94. 4 / 52.94. 4  libavformat   52.84. 0 / 52.84. 0  libavdevice   52. 2. 2 / 52. 2. 2  libavfilter    1.59. 0 /  1.59. 0  libswscale     0.12. 0 /  0.12. 0Input #0, avi, from '/RAID10/data/converted_video_files/9530.avi':  Duration: 00:00:12.00, start: 0.000000, bitrate: 43205 kb/s    Stream #0.0: Video: rawvideo, pal8, 600x600, 15 tbr, 15 tbn, 15 tbc    Metadata:      title           : FileAVI write  [buffer @ 0x10d9b0d0] w:600 h:600 pixfmt:pal8[ffsink @ 0x10d9b340] auto-inserting filter 'auto-inserted scaler 0' between the filter 'src' and the filter 'out'[scale @ 0x10d9b660] w:600 h:600 fmt:pal8 -> w:600 h:600 fmt:yuv420p flags:0x4Output #0, flv, to '/RAID10/data/converted_video_files/9530.flv':  Metadata:    encoder         : Lavf52.84.0    Stream #0.0: Video: flv, yuv420p, 600x600, q=2-31, 600 kb/s, 1k tbn, 24 tbc    Metadata:      title           : FileAVI write  Stream mapping:  Stream #0.0 -> #0.0Press [q] to stop encodingframe=   23 fps=  0 q=12.9 size=     391kB time=1.50 bitrate=2137.9kbits/s    frame=   47 fps= 45 q=11.2 size=     459kB time=3.12 bitrate=1202.4kbits/s    frame=   71 fps= 45 q=10.8 size=     535kB time=4.71 bitrate= 931.0kbits/s    frame=   95 fps= 46 q=10.6 size=     622kB time=6.29 bitrate= 810.5kbits/s    frame=  119 fps= 46 q=10.4 size=     714kB time=7.92 bitrate= 739.3kbits/s    frame=  143 fps= 46 q=9.9 size=     810kB time=9.50 bitrate= 698.4kbits/s    frame=  167 fps= 46 q=9.8 size=     909kB time=11.12 bitrate= 669.7kbits/s    frame=  180 fps= 46 q=9.7 Lsize=     962kB time=11.96 bitrate= 659.0kbits/s    video:959kB audio:0kB global headers:0kB muxing overhead 0.314665%